<svg xmlns="http://www.w3.org/2000/svg" width="44" height="44" viewBox="0 0 44 44">
  <g id="Group_3974" data-name="Group 3974" transform="translate(-15 -48)">
    <rect id="Arrow_background" data-name="Arrow background" width="44" height="44" rx="11" transform="translate(15 48)" fill="#152643"/>
    <g id="Arrow_Icon" data-name="Arrow Icon" transform="translate(30.252 64.721)">
      <g id="Group_7" data-name="Group 7">
        <path id="Path_21" data-name="Path 21" d="M12.737,46.22l.021,0H3.727L6.566,43.38a.746.746,0,0,0,0-1.048l-.442-.442a.739.739,0,0,0-1.043,0L.215,46.755a.744.744,0,0,0,0,1.047l4.867,4.867a.74.74,0,0,0,1.043,0l.442-.442a.731.731,0,0,0,.215-.521.709.709,0,0,0-.215-.512L3.7,48.332h9.052a.765.765,0,0,0,.749-.757V46.95A.75.75,0,0,0,12.737,46.22Z" transform="translate(0 -41.674)" fill="#fff"/>
      </g>
    </g>
  </g>
</svg>
