<svg xmlns="http://www.w3.org/2000/svg" width="24.996" height="22.465" viewBox="0 0 24.996 22.465">
  <path id="Path_6567" data-name="Path 6567" d="M25,16.125a1.5,1.5,0,0,1-1.575,1.562H21.712v7.406a2.37,2.37,0,0,1-2.415,2.42H15.775a.966.966,0,0,1-1.077-1.09V22.331a2.192,2.192,0,0,0-4.372-.317c-.052,1.415-.04,2.889-.017,4.334a1.056,1.056,0,0,1-1.172,1.175c-1.155-.037-2.312,0-3.467,0a2.37,2.37,0,0,1-2.382-2.37V17.687H1.653A1.5,1.5,0,0,1,.006,16.015a8.374,8.374,0,0,1,.087-1.372,2.25,2.25,0,0,1,.895-1.377Q5.855,9.486,10.716,5.7a2.8,2.8,0,0,1,3.569,0q4.839,3.769,9.683,7.534a2.52,2.52,0,0,1,1.03,2.1Z" transform="translate(-0.004 -5.059)" fill="#fff"/>
</svg>
