<svg xmlns="http://www.w3.org/2000/svg" width="18.723" height="18.723" viewBox="0 0 18.723 18.723">
  <path id="iconfinder_phone_1608790" d="M210.723,142.787a4.389,4.389,0,0,1-.133.938,5.28,5.28,0,0,1-.279.911,3.565,3.565,0,0,1-1.622,1.41,4.93,4.93,0,0,1-3.172.632,5.747,5.747,0,0,1-.765-.166q-.426-.12-.632-.193t-.738-.273q-.532-.2-.652-.239a12.042,12.042,0,0,1-2.327-1.1,22.337,22.337,0,0,1-6.383-6.383,12.045,12.045,0,0,1-1.1-2.327q-.04-.12-.239-.652t-.273-.738q-.073-.206-.193-.632a5.746,5.746,0,0,1-.166-.765,4.93,4.93,0,0,1,.632-3.172,3.565,3.565,0,0,1,1.41-1.622,5.284,5.284,0,0,1,.911-.279,4.388,4.388,0,0,1,.938-.133.745.745,0,0,1,.279.04q.239.08.7,1.011.146.253.4.718t.465.844q.213.379.412.711.04.053.233.332a3.713,3.713,0,0,1,.286.472.867.867,0,0,1,.093.379,1.1,1.1,0,0,1-.379.665,6.483,6.483,0,0,1-.824.731,8.008,8.008,0,0,0-.824.7,1.013,1.013,0,0,0-.379.612.9.9,0,0,0,.066.3,2.909,2.909,0,0,0,.113.273q.047.093.186.319t.153.253a13.18,13.18,0,0,0,5.439,5.439q.027.013.253.153t.319.186a2.9,2.9,0,0,0,.273.113.9.9,0,0,0,.3.066,1.013,1.013,0,0,0,.612-.379,8.008,8.008,0,0,0,.7-.824,6.482,6.482,0,0,1,.731-.824,1.1,1.1,0,0,1,.665-.379.868.868,0,0,1,.379.093,3.717,3.717,0,0,1,.472.286q.279.193.332.233.332.2.711.412t.844.465q.465.253.718.4.931.465,1.011.7A.745.745,0,0,1,210.723,142.787Z" transform="translate(-192 -128)" fill="#152643"/>
</svg>
