<svg xmlns="http://www.w3.org/2000/svg" width="46.406" height="38.405" viewBox="0 0 46.406 38.405">
  <g id="Group_3872" data-name="Group 3872" transform="translate(-3 -8.007)">
    <path id="Path_6200" data-name="Path 6200" d="M35,15.6a1.227,1.227,0,0,0-.087-.452l-.95-2.374a1.206,1.206,0,0,0-1.126-.762H29.163a1.206,1.206,0,0,0-1.126.762l-.951,2.376a1.214,1.214,0,0,0,1.127,1.663h5.576A1.215,1.215,0,0,0,35,15.6Z" transform="translate(-4.798 -0.8)" fill="#fff"/>
    <rect id="Rectangle_1982" data-name="Rectangle 1982" width="4" height="5" transform="translate(24.203 17.209)" fill="#fff"/>
    <path id="Path_6201" data-name="Path 6201" d="M23.619,12.791l.566-1.415A2.8,2.8,0,0,1,26.8,9.607h3.676a2.8,2.8,0,0,1,2.612,1.768l.566,1.415A10.33,10.33,0,0,0,42.1,8.007H15.167A10.33,10.33,0,0,0,23.619,12.791Z" transform="translate(-2.432)" fill="#fff"/>
    <path id="Path_6202" data-name="Path 6202" d="M49.376,43.86,47.6,31.442a4.022,4.022,0,0,0-3.961-3.435H8.764A4.02,4.02,0,0,0,4.8,31.442L3.03,43.86a3,3,0,0,0-.03.414,2.939,2.939,0,0,0,2.935,2.935H46.471a2.939,2.939,0,0,0,2.935-2.935A3,3,0,0,0,49.376,43.86ZM47.4,45.221a1.3,1.3,0,0,1-.931.388H5.935A1.336,1.336,0,0,1,4.6,44.275l.008-.113L6.388,31.668a2.413,2.413,0,0,1,2.377-2.061H43.643a2.413,2.413,0,0,1,2.377,2.061L47.8,44.187A1.435,1.435,0,0,1,47.4,45.221Z" transform="translate(0 -3.998)" fill="#fff"/>
    <path id="Path_6203" data-name="Path 6203" d="M23.418,55.607H36.831l.8-1.6H22.618Z" transform="translate(-3.922 -9.195)" fill="#fff"/>
    <path id="Path_6204" data-name="Path 6204" d="M44.453,32.007H9.575a.8.8,0,0,0-.792.686L7.058,44.809H46.977L45.246,32.694A.8.8,0,0,0,44.453,32.007ZM10.346,42.765l6.4-9.6,1.331.887-6.4,9.6Zm6.4,0,6.4-9.6,1.331.887-6.4,9.6Zm6.4,0,6.4-9.6,1.331.887-6.4,9.6Zm6.4,0,6.4-9.6,1.331.887-6.4,9.6Zm7.732.887-1.331-.887,6.4-9.6,1.331.887Z" transform="translate(-0.811 -4.798)" fill="#fff"/>
  </g>
</svg>
