<svg xmlns="http://www.w3.org/2000/svg" width="44" height="44" viewBox="0 0 44 44">
  <g id="Group_3972" data-name="Group 3972" transform="translate(-316 -48)">
    <rect id="Hamburger_Icon_Background" data-name="Hamburger Icon Background" width="44" height="44" rx="11" transform="translate(316 48)" fill="#fff" opacity="0.3"/>
    <g id="Group_3265" data-name="Group 3265" transform="translate(324.152 55.423)">
      <path id="Path_6561" data-name="Path 6561" d="M15.415,45.1a6.827,6.827,0,0,1-7.53,0A4.73,4.73,0,0,0,3.8,49.8v3.051a.494.494,0,0,0,.492.492h9.154l5.586-5.586A4.8,4.8,0,0,0,15.415,45.1Z" transform="translate(0 -32.117)" fill="#fff"/>
      <circle id="Ellipse_1276" data-name="Ellipse 1276" cx="4.725" cy="4.725" r="4.725" transform="translate(6.95 2.5)" fill="#fff"/>
      <path id="Path_6562" data-name="Path 6562" d="M45.173,82.968a.5.5,0,0,0-.123.221l-.468,2.461a.439.439,0,0,0,.517.517L47.56,85.7a.331.331,0,0,0,.221-.123l.468-.468L45.64,82.5Z" transform="translate(-30.742 -60.314)" fill="#fff"/>
      <rect id="Rectangle_1982" data-name="Rectangle 1982" width="7.801" height="3.716" transform="translate(16.091 21.003) rotate(-45)" fill="#fff"/>
      <path id="Path_6563" data-name="Path 6563" d="M84.493,47.812l-1.821-1.821a.579.579,0,0,0-.812,0l-.96.96,2.608,2.633.96-.96A.558.558,0,0,0,84.493,47.812Z" transform="translate(-58.128 -32.664)" fill="#fff"/>
    </g>
  </g>
</svg>
