<svg xmlns="http://www.w3.org/2000/svg" width="28.867" height="22.108" viewBox="0 0 28.867 22.108">
  <path id="Path_6205" data-name="Path 6205" d="M78.489,75.225a4.25,4.25,0,0,0-4.249-4.249H61.485a4.12,4.12,0,0,0-3.905,3.17l-1.455,6.967a4.824,4.824,0,0,0,4.89,6.019H74.239a4.249,4.249,0,0,0,4.251-4.249Zm-9.226,7.953a.429.429,0,0,1-.607,0l-5.346-5.346a.426.426,0,0,1,0-.607l.6-.6a.429.429,0,0,1,.607,0l5.345,5.345a.427.427,0,0,1,0,.607Zm1.275-3.826a.428.428,0,0,1-.605,0l-2.373-2.373a.426.426,0,0,1,0-.605l.6-.6a.428.428,0,0,1,.605,0l2.373,2.373a.426.426,0,0,1,0,.605Zm8.6-6.675a5.5,5.5,0,0,1,.622,2.548V82.88h3.4v6.806a.427.427,0,0,0,.429.422h.842a.423.423,0,0,0,.429-.422V68.422A.427.427,0,0,0,84.438,68H83.6a.423.423,0,0,0-.429.422v4.255Z" transform="translate(-56 -68)" fill="#fff" fill-rule="evenodd"/>
</svg>
