<svg xmlns="http://www.w3.org/2000/svg" width="54" height="22" viewBox="0 0 54 22">
  <g id="Group_3973" data-name="Group 3973" transform="translate(-72 -523)">
    <g id="Group_3972" data-name="Group 3972">
      <path id="Path_6207" data-name="Path 6207" d="M11.143,0H42.857A11.072,11.072,0,0,1,54,11,11.072,11.072,0,0,1,42.857,22H11.143A11.072,11.072,0,0,1,0,11,11.072,11.072,0,0,1,11.143,0Z" transform="translate(72 523)" fill="#fff"/>
    </g>
    <g id="Arrow" transform="translate(92.252 528.895)">
      <g id="Group_7" data-name="Group 7" transform="translate(0 0)">
        <path id="Path_21" data-name="Path 21" d="M12.737,4.546l.021,0H3.727L6.566,1.706a.746.746,0,0,0,0-1.048L6.125.216a.739.739,0,0,0-1.043,0L.215,5.081a.744.744,0,0,0,0,1.047l4.867,4.867a.74.74,0,0,0,1.043,0l.442-.442a.731.731,0,0,0,.215-.521.709.709,0,0,0-.215-.512L3.7,6.658h9.052A.765.765,0,0,0,13.5,5.9V5.276A.75.75,0,0,0,12.737,4.546Z" fill="#7697cf"/>
      </g>
    </g>
  </g>
</svg>
