<svg id="Group_2195" data-name="Group 2195" xmlns="http://www.w3.org/2000/svg" width="16.004" height="19.942" viewBox="0 0 16.004 19.942">
  <path id="Path_5940" data-name="Path 5940" d="M19,20H5a1,1,0,0,0,0,2H19a1,1,0,0,0,0-2Z" transform="translate(-3.996 -2.058)" fill="#152643"/>
  <path id="Path_5941" data-name="Path 5941" d="M5,18h.09l4.17-.38a2,2,0,0,0,1.21-.57l9-9a1.92,1.92,0,0,0-.07-2.71L16.66,2.6A2,2,0,0,0,14,2.53l-9,9a2,2,0,0,0-.57,1.21L4,16.91A1,1,0,0,0,5,18ZM15.27,4,18,6.73,16,8.68,13.32,6Zm-8.9,8.91L12,7.32l2.7,2.7-5.6,5.6-3,.28Z" transform="translate(-3.996 -2.058)" fill="#152643"/>
</svg>
