<svg xmlns="http://www.w3.org/2000/svg" width="13.496" height="11.21" viewBox="0 0 13.496 11.21">
  <g id="Arrow" transform="translate(13.496 11.21) rotate(180)">
    <g id="Group_7" data-name="Group 7" transform="translate(0)">
      <path id="Path_21" data-name="Path 21" d="M12.737,6.663l.021,0H3.728L6.567,9.5a.746.746,0,0,1,0,1.048l-.442.442a.739.739,0,0,1-1.043,0L.215,6.128a.744.744,0,0,1,0-1.047L5.082.215a.74.74,0,0,1,1.043,0l.442.442a.731.731,0,0,1,.215.521.709.709,0,0,1-.215.512L3.7,4.551h9.052a.765.765,0,0,1,.749.757v.625A.75.75,0,0,1,12.737,6.663Z" fill="#fff"/>
    </g>
  </g>
</svg>
