<svg xmlns="http://www.w3.org/2000/svg" width="16.812" height="21.295" viewBox="0 0 16.812 21.295">
  <path id="Path_6623" data-name="Path 6623" d="M20.131,10.891h-.705V8.67a5.885,5.885,0,0,0-5.8-5.957A5.887,5.887,0,0,0,7.83,8.67v2.221H7.125a1.929,1.929,0,0,0-1.9,1.955v9.207a1.929,1.929,0,0,0,1.9,1.955H20.131a1.931,1.931,0,0,0,1.9-1.955V12.847A1.931,1.931,0,0,0,20.131,10.891Zm-5.787,7.177v2.488a.714.714,0,1,1-1.427,0V18.07a1.759,1.759,0,0,1-1-1.592,1.71,1.71,0,1,1,3.418,0A1.759,1.759,0,0,1,14.343,18.069ZM9.258,10.891V8.67A4.372,4.372,0,1,1,18,8.67v2.221Z" transform="translate(-5.223 -2.713)" fill="#152643"/>
</svg>
