<svg xmlns="http://www.w3.org/2000/svg" width="54" height="22" viewBox="0 0 54 22">
  <g id="Group_3974" data-name="Group 3974" transform="translate(-250 -523)">
    <path id="Path_6208" data-name="Path 6208" d="M11.143,0H42.857A11.072,11.072,0,0,1,54,11,11.072,11.072,0,0,1,42.857,22H11.143A11.072,11.072,0,0,1,0,11,11.072,11.072,0,0,1,11.143,0Z" transform="translate(250 523)" fill="#fff"/>
    <g id="Arrow" transform="translate(270.252 528.895)">
      <g id="Group_7" data-name="Group 7" transform="translate(0 0)">
        <path id="Path_21" data-name="Path 21" d="M.759,4.546l-.021,0H9.769L6.93,1.706a.746.746,0,0,1,0-1.048L7.371.216a.739.739,0,0,1,1.043,0l4.867,4.866a.744.744,0,0,1,0,1.047L8.414,10.994a.74.74,0,0,1-1.043,0l-.442-.442a.731.731,0,0,1-.215-.521.709.709,0,0,1,.215-.512L9.8,6.658H.749A.765.765,0,0,1,0,5.9V5.276A.75.75,0,0,1,.759,4.546Z" fill="#7697cf"/>
      </g>
    </g>
  </g>
</svg>
