<svg xmlns="http://www.w3.org/2000/svg" width="28.867" height="22.108" viewBox="0 0 28.867 22.108">
  <path id="Path_6206" data-name="Path 6206" d="M62.377,75.225a4.25,4.25,0,0,1,4.249-4.249H79.382a4.12,4.12,0,0,1,3.905,3.17l1.455,6.967a4.824,4.824,0,0,1-4.89,6.019H66.628a4.249,4.249,0,0,1-4.251-4.249ZM71.6,83.178a.429.429,0,0,0,.607,0l5.346-5.346a.426.426,0,0,0,0-.607l-.6-.6a.429.429,0,0,0-.607,0l-5.345,5.345a.427.427,0,0,0,0,.607Zm-1.275-3.826a.428.428,0,0,0,.605,0l2.373-2.373a.426.426,0,0,0,0-.605l-.6-.6a.428.428,0,0,0-.605,0L69.73,78.151a.426.426,0,0,0,0,.605Zm-8.6-6.675a5.5,5.5,0,0,0-.622,2.548V82.88H57.7v6.806a.427.427,0,0,1-.429.422h-.842A.423.423,0,0,1,56,89.686V68.422A.427.427,0,0,1,56.429,68h.842a.423.423,0,0,1,.429.422v4.255Z" transform="translate(-56 -68)" fill="#fff" fill-rule="evenodd"/>
</svg>
