<svg xmlns="http://www.w3.org/2000/svg" width="40" height="40" viewBox="0 0 40 40">
  <g id="Group_3981" data-name="Group 3981" transform="translate(-30 -445)">
    <g id="Group_3977" data-name="Group 3977">
      <rect id="Rectangle_2004" data-name="Rectangle 2004" width="40" height="40" rx="5" transform="translate(30 445)" fill="#f2f7ff"/>
    </g>
    <path id="Path_6569" data-name="Path 6569" d="M4.2,18.73a9.4,9.4,0,0,1-2.2-6.242A3.125,3.125,0,0,1,3.858,9.7l.229-.1a1.145,1.145,0,0,1,1.372.354L7,11.966a1.06,1.06,0,0,1-.093,1.4L5.868,14.407a4.728,4.728,0,0,0,1.047,2.286l.057.068a4.981,4.981,0,0,0,.611.611l.068.057a4.733,4.733,0,0,0,2.286,1.047l1.041-1.041a1.06,1.06,0,0,1,1.4-.093l2.016,1.544a1.145,1.145,0,0,1,.354,1.372l-.1.229a3.125,3.125,0,0,1-2.788,1.87h-.2a9.4,9.4,0,0,1-6.048-2.2l-.12-.1a9.843,9.843,0,0,1-1.2-1.2ZM20.342,4.006a6.853,6.853,0,0,1-8.35,10.735l-2.248.653a.636.636,0,0,1-.789-.789l.653-2.248A6.853,6.853,0,0,1,20.342,4.006ZM13.406,8.851a.874.874,0,1,0-.871.874A.874.874,0,0,0,13.406,8.851Zm2.968,0a.87.87,0,1,1-.006,0Zm2.968,0a.865.865,0,1,1-.013,0Z" transform="translate(38.01 452.535)" fill="#152643"/>
  </g>
</svg>
