<svg xmlns="http://www.w3.org/2000/svg" width="40" height="40" viewBox="0 0 40 40">
  <g id="Group_3973" data-name="Group 3973" transform="translate(-30 -225)">
    <rect id="Rectangle_2000" data-name="Rectangle 2000" width="40" height="40" rx="5" transform="translate(30 225)" fill="#f2f7ff"/>
    <g id="noun_about_2510068" transform="translate(441 205)">
      <path id="Path_648" data-name="Path 648" d="M14.091,5a9.091,9.091,0,1,0,9.091,9.091A9.091,9.091,0,0,0,14.091,5Zm.359,4.249a1.276,1.276,0,0,1,1.219-.94.77.77,0,0,1,.808.951,1.276,1.276,0,0,1-1.219.94.77.77,0,0,1-.808-.951Zm2.038,8.691a6.892,6.892,0,0,1-2.046,1.65c-1.089.553-2.3.291-2.078-.744l1.127-5.184c.214-.986-.67-.892-1.671-.315a.1.1,0,0,1-.126-.153,6.892,6.892,0,0,1,2.046-1.65c1.089-.553,2.3-.291,2.078.744l-1.127,5.184c-.214.986.67.892,1.671.315a.1.1,0,0,1,.126.153Z" transform="translate(-405 26)" fill="#152643"/>
    </g>
  </g>
</svg>
