<svg xmlns="http://www.w3.org/2000/svg" width="40" height="40" viewBox="0 0 40 40">
  <g id="Group_3972" data-name="Group 3972" transform="translate(-30 -170)">
    <rect id="Rectangle_1999" data-name="Rectangle 1999" width="40" height="40" rx="5" transform="translate(30 170)" fill="#f2f7ff"/>
    <g id="Group_3915" data-name="Group 3915" transform="translate(40.435 180.08)">
      <path id="Path_6152" data-name="Path 6152" d="M9.541.575a1.36,1.36,0,0,0-.9.342L1.171,7.552l-.014.014a1.234,1.234,0,0,0-.463.979.753.753,0,0,0,.251.51.811.811,0,0,0,.524.179h.894a.445.445,0,0,1,.45.45v8.072A1.351,1.351,0,0,0,4.157,19.1h2.7A1.351,1.351,0,0,0,8.2,17.756V14.168a.445.445,0,0,1,.45-.45h1.787a.445.445,0,0,1,.45.45v3.588A1.352,1.352,0,0,0,12.23,19.1h2.695a1.351,1.351,0,0,0,1.344-1.346V9.684a.611.611,0,0,1,.45-.45h.894a.869.869,0,0,0,.557-.179.754.754,0,0,0,.258-.543,1.208,1.208,0,0,0-.517-.96L17.9,7.545,10.441.917a1.338,1.338,0,0,0-.9-.341Z" transform="translate(0 0)" fill="#152643"/>
    </g>
  </g>
</svg>
