<svg xmlns="http://www.w3.org/2000/svg" width="40" height="40" viewBox="0 0 40 40">
  <g id="Group_3975" data-name="Group 3975" transform="translate(-30 -335)">
    <rect id="Rectangle_2002" data-name="Rectangle 2002" width="40" height="40" rx="5" transform="translate(30 335)" fill="#f2f7ff"/>
    <g id="Solid" transform="translate(8.049 313.564)">
      <path id="Path_6157" data-name="Path 6157" d="M386.053,33.026a1.026,1.026,0,1,0-2.053,0v.342h2.053Z" transform="translate(-336.946 0)" fill="#152643"/>
      <path id="Path_6158" data-name="Path 6158" d="M200.158,73.569a.342.342,0,0,1,.214.516.2.2,0,0,0,.281.281.342.342,0,0,1,.516.214.2.2,0,0,0,.4,0,.342.342,0,0,1,.516-.214.2.2,0,0,0,.281-.281.342.342,0,0,1,.214-.516.2.2,0,0,0,0-.4.342.342,0,0,1-.214-.516.2.2,0,0,0-.281-.281.342.342,0,0,1-.516-.214.2.2,0,0,0-.4,0,.342.342,0,0,1-.516.214.2.2,0,0,0-.281.281.342.342,0,0,1-.214.516.2.2,0,0,0,0,.4Z" transform="translate(-160.814 -38.291)" fill="#152643"/>
      <path id="Path_6159" data-name="Path 6159" d="M96,33.026v16.08h9.237a.342.342,0,0,1,.342.342v.684a1.026,1.026,0,0,0,2.053,0V33.026A1.7,1.7,0,0,1,107.975,32H97.026A1.028,1.028,0,0,0,96,33.026Zm1.711,14.027h-.684v-.684h.684Zm0-2.737h-.684v-.684h.684Zm8.9,2.737h-2.053v-.684h2.053Zm0-1.369h-5.474V45h5.474Zm0-2.737h-2.053v-.684h2.053ZM101.132,38.5v-.684h3.421V38.5Zm2.395.684v.684h-3.421v-.684Zm-3.418-4.813a1.45,1.45,0,0,1,2.414-1,.9.9,0,0,1,1,1,.9.9,0,0,1,0,1.414,1.45,1.45,0,0,1-2.414,1,.9.9,0,0,1-1-1,.9.9,0,0,1,0-1.414Zm-1.03,3.444h1.369V38.5H99.079ZM98.395,40.9h8.211v.684H98.395Zm0,1.369h5.474v.684H98.395Zm0,1.369h8.211v.684H98.395Zm0,1.369h2.053v.684H98.395Zm0,1.369h5.474v.684H98.395Zm0,1.369h8.211v.684H98.395Zm-.684-6.158h-.684V40.9h.684Z" transform="translate(-61.263)" fill="#152643"/>
      <path id="Path_6160" data-name="Path 6160" d="M43.632,448H32v.342a1.028,1.028,0,0,0,1.026,1.026H43.975a1.7,1.7,0,0,1-.343-1.026Z" transform="translate(0 -398.209)" fill="#152643"/>
      <path id="Path_6161" data-name="Path 6161" d="M416.684,128a.685.685,0,0,0-.684.684h1.369A.685.685,0,0,0,416.684,128Z" transform="translate(-367.578 -91.894)" fill="#152643"/>
      <path id="Path_6162" data-name="Path 6162" d="M416,160h1.369v2.737H416Z" transform="translate(-367.578 -122.526)" fill="#152643"/>
      <path id="Path_6163" data-name="Path 6163" d="M421.417,408.946l.473-.946h-.946Z" transform="translate(-372.31 -359.92)" fill="#152643"/>
      <path id="Path_6164" data-name="Path 6164" d="M416,240h1.369v.684H416Z" transform="translate(-367.578 -199.105)" fill="#152643"/>
      <path id="Path_6165" data-name="Path 6165" d="M416,272h1.369v5.132H416Z" transform="translate(-367.578 -229.736)" fill="#152643"/>
      <path id="Path_6166" data-name="Path 6166" d="M464.342,144H464v.684h.342a.343.343,0,0,1,.342.342v3.763h.684v-3.763A1.028,1.028,0,0,0,464.342,144Z" transform="translate(-413.525 -107.21)" fill="#152643"/>
    </g>
  </g>
</svg>
