<svg xmlns="http://www.w3.org/2000/svg" width="40" height="40" viewBox="0 0 40 40">
  <g id="Group_3974" data-name="Group 3974" transform="translate(-30 -280)">
    <rect id="Rectangle_2001" data-name="Rectangle 2001" width="40" height="40" rx="5" transform="translate(30 280)" fill="#f2f7ff"/>
    <g id="Group_3916" data-name="Group 3916" transform="translate(20 -40)">
      <path id="Subtraction_5" data-name="Subtraction 5" d="M9.322,17.908H.559a.555.555,0,0,1-.394-.162A.563.563,0,0,1,0,17.351V.555A.56.56,0,0,1,.559,0H13.85a.56.56,0,0,1,.559.555V10.7c-.169-.016-.343-.025-.517-.025a5.286,5.286,0,0,0-3.41,1.235H.865a.234.234,0,1,0,0,.467H10a4.767,4.767,0,0,0-.677,5.532Zm-8.6-2.457a.234.234,0,0,0,0,.467H7.085a.234.234,0,0,0,0-.467Zm0-1.771a.233.233,0,0,0,0,.467H7.085a.233.233,0,0,0,0-.467Zm.142-3.543a.234.234,0,0,0,0,.467H13.588a.234.234,0,0,0,0-.467Zm0-1.771a.234.234,0,0,0,0,.467H13.588a.234.234,0,0,0,0-.467Zm0-1.771a.234.234,0,0,0,0,.467H13.588a.234.234,0,0,0,0-.467Zm0-1.771a.234.234,0,1,0,0,.467H13.588a.234.234,0,0,0,0-.467Zm0-1.771a.234.234,0,0,0,0,.467H13.588a.234.234,0,0,0,0-.467ZM1.08,1.281a.233.233,0,0,0,0,.467H7.442a.233.233,0,1,0,0-.467Z" transform="translate(22.988 330.577)" fill="#152643"/>
      <g id="Group_3131" data-name="Group 3131" transform="translate(32.207 341.717)">
        <path id="Path_6153" data-name="Path 6153" d="M378.286,384.048a.507.507,0,0,0-.428-.548h-1.329a.506.506,0,0,0-.428.548v.534h2.186Z" transform="translate(-372.485 -381.039)" fill="#152643"/>
        <path id="Path_6155" data-name="Path 6155" d="M367.35,416.486h3.2v-2.4h-3.2Zm1.719-1.7a.466.466,0,0,1,.466.461.456.456,0,0,1-.116.3v.359a.349.349,0,1,1-.7,0v-.359a.456.456,0,0,1-.116-.3A.466.466,0,0,1,369.069,414.783Z" transform="translate(-364.244 -409.848)" fill="#152643"/>
        <path id="Path_6156" data-name="Path 6156" d="M318.674,341.23a4.48,4.48,0,1,0,4.674,4.476A4.583,4.583,0,0,0,318.674,341.23Zm2.335,6.87a.466.466,0,0,1-.466.466h-3.668a.466.466,0,0,1-.466-.466v-2.861a.466.466,0,0,1,.466-.466h.044v-.534a1.193,1.193,0,0,1,1.127-1.247h1.329a1.193,1.193,0,0,1,1.127,1.247v.534h.044a.466.466,0,0,1,.466.466Z" transform="translate(-314 -341.23)" fill="#152643"/>
      </g>
    </g>
  </g>
</svg>
