<svg xmlns="http://www.w3.org/2000/svg" width="40" height="40" viewBox="0 0 40 40">
  <g id="Group_3980" data-name="Group 3980" transform="translate(-30 -390)">
    <g id="Group_3976" data-name="Group 3976">
      <rect id="Rectangle_2003" data-name="Rectangle 2003" width="40" height="40" rx="5" transform="translate(30 390)" fill="#f2f7ff"/>
    </g>
    <g id="Group_3979" data-name="Group 3979">
      <path id="Path_6568" data-name="Path 6568" d="M33.639,33.179,26.256,21.645a2.787,2.787,0,0,0-4.708,0L14.137,33.179A2.8,2.8,0,0,0,16.5,37.5H31.3A2.792,2.792,0,0,0,33.639,33.179Zm-8.915.7H23.275V32.65h1.449Zm1.393-4.012a4,4,0,0,1-.919.892,1.174,1.174,0,0,0-.39.474,1.983,1.983,0,0,0-.084.641H23.3a1.81,1.81,0,0,1,.2-1,3.6,3.6,0,0,1,.808-.78,2.85,2.85,0,0,0,.557-.613,1.286,1.286,0,0,0,.2-.724,1.043,1.043,0,0,0-.223-.7.963.963,0,0,0-.724-.279A.918.918,0,0,0,23.5,28a.74.74,0,0,0-.251.613H21.8a1.8,1.8,0,0,1,.641-1.477,2.6,2.6,0,0,1,1.672-.5,2.473,2.473,0,0,1,1.727.557,1.99,1.99,0,0,1,.613,1.532A1.837,1.837,0,0,1,26.117,29.864Z" transform="translate(26.361 380.802)" fill="#152643"/>
    </g>
  </g>
</svg>
