<svg xmlns="http://www.w3.org/2000/svg" width="40" height="40" viewBox="0 0 40 40">
  <g id="Group_3982" data-name="Group 3982" transform="translate(-30 -607)">
    <g id="Group_3978" data-name="Group 3978">
      <rect id="Rectangle_1897" data-name="Rectangle 1897" width="40" height="40" rx="5" transform="translate(30 607)" fill="#f2f7ff"/>
    </g>
    <g id="Group_3132" data-name="Group 3132" transform="translate(-787.19 -4718.129)">
      <path id="Path_6168" data-name="Path 6168" d="M25.55,38.635h6.242a1.276,1.276,0,0,0,0-2.552H28.1V21.162h3.691a1.276,1.276,0,1,0,0-2.552H25.55Z" transform="translate(804 5316.391)" fill="#152643"/>
      <path id="Path_6169" data-name="Path 6169" d="M50.226,38.6a1.248,1.248,0,0,0,.064-.115c.016-.032.035-.064.051-.1a1.275,1.275,0,0,0,.045-.14.5.5,0,0,1,.026-.093,1.275,1.275,0,0,0,.026-.239h0a1.275,1.275,0,0,0-.026-.239.44.44,0,0,0-.026-.093,1.275,1.275,0,0,0-.045-.14c0-.035-.032-.067-.051-.1a1.254,1.254,0,0,0-.064-.115,1.085,1.085,0,0,0-.073-.1c-.026-.032-.038-.054-.061-.08l-4.07-4.4A1.281,1.281,0,1,0,44.15,34.4l2.083,2.233H40.456a1.276,1.276,0,1,0,0,2.552h5.777L44.15,41.417a1.276,1.276,0,1,0,1.872,1.735l4.07-4.376c.022-.026.038-.051.061-.08S50.2,38.636,50.226,38.6Z" transform="translate(794.718 5307.105)" fill="#152643"/>
    </g>
  </g>
</svg>
